<?xml version="1.0" standalone="no"?><!DOCTYPE svg PUBLIC "-//W3C//DTD SVG 1.1//EN" "http://www.w3.org/Graphics/SVG/1.1/DTD/svg11.dtd"><svg t="1710223859030" class="icon" viewBox="0 0 1024 1024" version="1.1" xmlns="http://www.w3.org/2000/svg" p-id="2677" width="128" height="128" xmlns:xlink="http://www.w3.org/1999/xlink"><path d="M817.024 820.16H208.64a49.28 49.28 0 0 1-50.048-50.432V400.32C158.72 202.24 316.992 42.688 512 42.688c195.008 0 355.008 159.488 355.008 357.632v369.408c0 26.88-23.36 50.432-49.984 50.432zM258.688 719.36h508.352V400.32c0-142.72-115.008-256.896-255.04-256.896-139.968 0-254.976 114.176-254.976 256.896v319.04h1.664z" fill="#5a5e66" p-id="2678"></path><path d="M888.704 820.16H135.296a49.28 49.28 0 0 1-50.048-50.432 49.28 49.28 0 0 1 50.048-50.368h753.28a49.28 49.28 0 0 1 50.048 50.368 50.304 50.304 0 0 1-49.984 50.432zM512 981.312a236.8 236.8 0 0 1-133.312-41.984c-23.36-15.104-28.352-46.976-13.376-70.528 15.04-23.488 46.72-28.544 70.016-13.44a132.096 132.096 0 0 0 151.68 0 50.56 50.56 0 0 1 70.016 13.44 51.392 51.392 0 0 1-13.376 70.528c-38.336 28.544-83.328 41.984-131.648 41.984z" fill="#5a5e66" p-id="2679"></path></svg>